<?xml version="1.0" encoding="UTF-8"?>
<svg width="100px" height="80px" viewBox="0 0 100 80" version="1.1" xmlns="http://www.w3.org/2000/svg" xmlns:xlink="http://www.w3.org/1999/xlink">
    <!-- Generator: Sketch 59 (86127) - https://sketch.com -->
    <title>Shape</title>
    <desc>Created with Sketch.</desc>
    <g id="Styleguide" stroke="none" stroke-width="1" fill="none" fill-rule="evenodd">
        <g id="Desktop-HD" transform="translate(-819.000000, -282.000000)" fill="#FFFFFF" fill-rule="nonzero">
            <g id="Group" transform="translate(874.000000, 322.000000) scale(-1, 1) rotate(-180.000000) translate(-874.000000, -322.000000) translate(787.000000, 282.000000)">
                <path d="M53.5691725,79.1914087 C41.4908402,76.0075805 32.8490208,65.0410613 32.8490208,52.912192 C32.8490208,46.190777 36.2349968,37.7005685 41.9456728,29.9684144 C45.1295009,25.7233102 53.3670246,16.5255843 56.3992419,13.8471257 C57.460518,12.8869236 61.4024005,9.24826279 65.0915982,5.76121289 C70.4990524,0.707517372 71.9140872,-0.404295641 72.4194567,0.151610865 C72.9248263,0.656980417 72.8742893,0.707517372 72.3183828,0.404295641 C71.8130133,0.10107391 71.7119394,0.202147821 71.9646241,0.606443462 C72.2173089,0.960202148 72.7226785,1.11181301 73.1269741,0.960202148 C73.5312697,0.808591282 73.6828806,0.859128238 73.5312697,1.16234997 C73.3796589,1.41503474 73.7334176,1.86986734 74.2893241,2.17308907 C74.8452306,2.4763108 75.1484523,2.98168035 74.9968414,3.28490208 C74.7946936,3.58812382 74.8452306,3.68919773 75.1484523,3.53758686 C75.8054327,3.13329122 77.4731522,4.90208465 76.9677827,5.45799116 C76.7150979,5.66013898 76.8161718,5.71067593 77.1193936,5.55906507 C77.6753001,5.20530638 81.5666456,8.89450411 81.111813,9.29879975 C80.9602021,9.45041061 81.3139608,9.55148452 81.9204043,9.50094757 C82.4763108,9.45041061 84.3461781,8.08591282 86.0644346,6.4181933 C87.7321541,4.80101074 88.9450411,3.79027164 88.6923563,4.19456728 C88.2880606,4.85154769 88.3891346,4.85154769 89.0966519,4.24510423 C89.5514845,3.89134555 89.8041693,3.38597599 89.6525584,3.13329122 C89.5009476,2.88060644 89.6525584,2.72899558 90.0568541,2.77953253 C90.4106128,2.88060644 90.6632975,2.62792167 90.6127606,2.32469994 C90.5116867,1.97094125 90.9159823,1.66771952 91.5224258,1.66771952 C92.2804801,1.66771952 92.4826279,1.41503474 92.2804801,0.859128238 C92.1288692,0.454832596 92.1794062,0.252684776 92.4826279,0.404295641 C93.4428301,1.0107391 93.0385344,2.67845862 91.9772584,2.67845862 C91.320278,2.67845862 90.9665193,3.03221731 90.9665193,3.68919773 C90.9665193,4.90208465 92.8869236,5.10423247 93.2912192,3.9418825 C93.4428301,3.53758686 94.0998105,3.23436513 94.7567909,3.28490208 C95.4643083,3.33543904 95.818067,3.63866077 95.6664561,4.04295641 C95.4643083,4.49778901 95.6664561,4.59886292 96.3234365,4.34617814 C96.9804169,4.09349337 97.1320278,4.19456728 96.879343,4.85154769 C96.6771952,5.35691725 96.879343,5.96336071 97.3341756,6.31711939 C97.7384713,6.67087808 98.4965256,7.3278585 98.9008212,7.83322805 C99.3556538,8.28806064 100.012634,8.54074542 100.366393,8.38913455 C100.821226,8.23752369 100.922299,8.49020846 100.720152,9.19772584 C100.518004,9.95578016 100.669615,10.2590019 101.276058,10.2590019 C101.730891,10.2590019 102.084649,10.0568541 102.084649,9.8041693 C102.084649,9.55148452 102.488945,9.39987366 102.994315,9.50094757 C103.449147,9.55148452 103.802906,9.95578016 103.701832,10.4106128 C103.651295,10.8654454 104.106128,11.4718888 104.712571,11.8256475 C105.824384,12.432091 105.824384,12.381554 105.116867,11.4718888 C104.409349,10.5622236 104.409349,10.5622236 105.268478,11.219204 C105.72331,11.5729627 106.127606,12.2299431 106.127606,12.6342388 C106.127606,13.0385344 106.329754,13.2406822 106.531901,13.0890714 C106.784586,12.9374605 106.986734,13.1396083 106.986734,13.543904 C106.986734,14.655717 106.481364,14.5041061 104.763108,12.7858497 C103.752369,11.7751105 103.044852,11.4213519 102.842704,11.7751105 C102.488945,12.381554 102.842704,12.9879975 103.651295,13.0890714 C103.90398,13.1396083 104.308275,13.1901453 104.56096,13.2406822 C104.813645,13.2406822 104.914719,13.7460518 104.763108,14.2514214 C104.459886,15.5148452 106.481364,16.7782691 106.936197,15.6159191 C107.289956,14.655717 108.55338,14.2008844 108.957675,14.9084018 C109.159823,15.2621605 109.109286,15.3126974 108.755527,15.1105496 C108.401769,14.9084018 108.149084,14.9589387 108.149084,15.2621605 C108.149084,15.5148452 108.401769,15.9191409 108.654454,16.0707517 C108.957675,16.2223626 109.159823,16.6266582 109.159823,16.92988 C109.159823,17.2836387 108.907138,17.2836387 108.452306,16.879343 C107.896399,16.4245104 107.694251,16.4750474 107.441567,17.0814908 C107.289956,17.5363234 107.340493,17.7890082 107.593178,17.6373973 C107.795325,17.4857865 107.896399,17.9406191 107.744788,18.5975995 C107.643714,19.3051169 107.744788,19.8610234 108.04801,19.8610234 C108.856601,19.8610234 109.766267,18.4459886 109.86734,17.0814908 C109.917877,15.9191409 109.968414,15.8686039 110.574858,16.6771952 C110.87808,17.1320278 111.181301,17.7384713 111.181301,17.991156 C111.181301,18.1933039 111.484523,18.2438408 111.838282,18.041693 C112.242577,17.7384713 112.242577,17.8900821 111.787745,18.4965256 C111.282375,19.102969 111.231838,19.5072647 111.686671,20.2147821 C112.19204,21.0233733 112.19204,21.0233733 111.939356,20.0631712 C111.53506,18.4965256 112.899558,18.7492104 114.567277,20.5180038 C115.375869,21.377132 115.67909,21.8825016 115.375869,21.6803538 C115.02211,21.4782059 114.718888,21.5792798 114.718888,21.8319646 C114.718888,22.1351864 114.971573,22.3878711 115.274795,22.3878711 C115.931775,22.3878711 119.16614,25.3190145 119.873658,26.6329754 C120.277953,27.3404927 120.227416,27.4921036 119.722047,27.1888819 C119.317751,26.9361971 119.216677,26.986734 119.469362,27.3404927 C119.67151,27.6942514 120.176879,27.9469362 120.581175,27.9469362 C120.985471,27.9469362 121.288692,28.2501579 121.288692,28.6039166 C121.288692,28.9576753 121.99621,29.9178774 122.804801,30.7264687 C123.714466,31.6361339 124.219836,32.4952622 124.068225,32.9500948 C123.916614,33.4049274 123.916614,33.5565382 124.118762,33.3543904 C124.725205,32.7984839 125.786481,34.0113708 125.48326,34.8704991 C125.281112,35.3758686 125.382186,35.5780164 125.685407,35.3758686 C126.190777,35.0726469 128.515477,39.2166772 128.515477,40.4295641 C128.515477,40.7833228 128.717625,41.0865445 128.97031,41.0865445 C129.172457,41.0865445 129.324068,41.2381554 129.273531,41.4908402 C129.222994,41.692988 129.425142,42.2994315 129.728364,42.9058749 C130.082123,43.4617814 130.385344,44.5230575 130.486418,45.2811118 C130.587492,45.9886292 130.840177,46.7466835 131.042325,46.9488313 C131.244473,47.1509792 131.396083,49.7789008 131.396083,52.7605812 C131.396083,58.6734049 130.435881,62.3120657 127.706886,66.9614656 C124.472521,72.5205306 117.34681,77.6247631 110.625395,79.2419457 C106.178143,80.2526848 102.539482,80.2021478 97.6373973,78.9387239 L93.493367,77.9279848 L89.3493367,78.9387239 C84.1945673,80.2526848 80.6064435,80.2526848 75.7043588,79.0397979 C64.3840809,76.1591914 56.2476311,66.5571699 55.236892,55.0347442 C54.3777637,44.7252053 61.2507896,31.585597 74.6430828,17.8900821 C76.1086545,16.4245104 77.3215414,15.0600126 77.3215414,14.8578648 C77.3215414,14.2514214 72.5205306,9.75363234 71.8635502,9.75363234 C70.5495894,9.75363234 54.4283007,25.8243841 49.8294378,31.7372078 C46.1402401,36.4876816 43.5123184,40.7327858 41.8951358,44.6241314 C40.9349337,46.8982944 40.7327858,48.3638661 40.7327858,52.7100442 C40.6822489,57.460518 40.8338598,58.3196462 42.0467467,60.9475679 C44.6746684,66.5571699 50.7896399,71.2571068 56.6013898,72.166772 C58.3701832,72.4699937 59.5325332,73.1269741 61.6550853,75.0473784 C63.1711939,76.4624131 64.8894504,77.8269109 65.5464308,78.1301327 C67.2646873,78.888187 66.9614656,79.3430196 64.3840809,79.6967783 C60.6948831,80.2021478 56.6013898,80 53.5691725,79.1914087 Z M91.1181301,70.4990524 C94.8578648,68.6291851 98.3954517,65.0915982 100.41693,61.0486418 C102.337334,57.3594441 102.640556,50.688566 101.07391,46.1402401 C99.102969,40.2779533 95.2116235,34.2640556 87.883765,25.874921 L84.9526216,22.539482 L87.3783955,20.1642451 L89.8041693,17.7890082 L92.8869236,21.1749842 C94.60518,23.0448515 95.818067,24.813645 95.6664561,25.0663298 C95.5148452,25.3695515 95.6159191,25.4200884 95.9191409,25.2179406 C96.6266582,24.763108 102.943778,33.3543904 105.470625,38.307012 C108.351232,43.916614 109.311434,47.5047378 109.311434,52.962729 C109.260897,59.5830701 107.340493,65.0915982 103.39861,69.842072 C102.387871,71.0549589 101.57928,72.116235 101.57928,72.2678459 C101.57928,72.4194567 103.600758,72.4699937 106.077069,72.3183828 C109.86734,72.065698 110.979154,71.8130133 113.657612,70.3979785 C117.195199,68.4775742 121.137081,64.4851548 122.703727,61.2002527 C125.129501,55.9444093 125.129501,49.6778269 122.65319,43.916614 C122.097284,42.6026532 121.642451,41.1876184 121.642451,40.7833228 C121.642451,40.4295641 121.440303,40.2274163 121.238155,40.3284902 C121.086545,40.4801011 120.581175,39.8231207 120.227416,38.9134555 C119.873658,38.0543272 119.368288,37.144662 119.115603,36.9930512 C118.913455,36.8414403 118.660771,36.3866077 118.559697,35.9823121 C118.50916,35.5780164 117.599495,34.3145925 116.538219,33.1522426 C115.476943,31.9898926 114.668351,30.9286166 114.718888,30.7264687 C114.718888,30.5748579 114.264056,29.9684144 113.607075,29.4630449 C112.950095,28.9071383 112.596336,28.5028427 112.798484,28.4523057 C113.000632,28.4523057 111.737208,27.087808 110.018951,25.3695515 C108.300695,23.651295 107.239419,22.4384081 107.643714,22.6910929 C108.098547,22.8932407 108.250158,22.8427037 107.997473,22.590019 C107.744788,22.3373342 107.289956,22.1351864 106.986734,22.1351864 C106.632975,22.0846494 106.430828,21.7814277 106.531901,21.377132 C106.632975,20.9728364 106.531901,20.7706886 106.329754,21.0233733 C106.127606,21.2255212 104.611497,20.1137081 102.994315,18.4965256 C100.113708,15.6159191 99.5578016,14.8073279 100.619078,14.8073279 C100.871762,14.8073279 100.972836,15.1105496 100.770689,15.4643083 C100.568541,15.76753 100.619078,15.8686039 100.821226,15.6664561 C101.07391,15.4643083 101.326595,14.9589387 101.377132,14.5546431 C101.478206,13.9987366 101.225521,13.9481996 100.669615,14.2008844 C100.164245,14.4535692 99.6083386,14.60518 99.3051169,14.5546431 C98.5470625,14.5041061 95.76753,11.7245736 95.9191409,11.1686671 C95.9696778,10.9159823 95.818067,10.8149084 95.5653822,10.9665193 C95.3126974,11.1181301 94.8073279,10.8654454 94.4535692,10.4106128 C93.8471257,9.70309539 93.8471257,9.60202148 94.4535692,9.95578016 C94.9084018,10.2590019 95.0600126,10.2084649 94.9589387,9.8041693 C94.8073279,9.45041061 94.5546431,9.19772584 94.3524953,9.19772584 C94.1503474,9.24826279 93.2912192,9.24826279 92.432091,9.24826279 C91.6234997,9.24826279 91.0170562,9.45041061 91.1686671,9.70309539 C91.320278,9.95578016 91.1181301,10.2590019 90.7138345,10.4611497 C90.3095389,10.6127606 89.9557802,11.0170562 89.9557802,11.3708149 C89.9557802,11.7751105 89.5514845,12.432091 89.0966519,12.8363866 C88.5912824,13.2912192 87.6816172,14.2514214 87.0246368,15.0094757 C86.4181933,15.76753 85.609602,16.2223626 85.3063803,16.0202148 C84.9526216,15.818067 84.9020846,15.8686039 85.1042325,16.2728996 C85.3569172,16.6266582 83.4870499,18.9008212 80.3032217,22.2867972 C71.1054959,31.8888187 64.7378395,41.4908402 63.1711939,48.1111813 C61.3013266,56.0454833 64.4346178,64.3335439 71.004422,68.8818699 C76.8161718,72.8742893 84.9526216,73.5312697 91.1181301,70.4990524 Z" id="Shape" transform="translate(82.122552, 39.996997) scale(-1, 1) translate(-82.122552, -39.996997) "></path>
            </g>
        </g>
    </g>
</svg>