<?xml version="1.0" encoding="UTF-8"?>
<svg width="100px" height="80px" viewBox="0 0 100 80" version="1.1" xmlns="http://www.w3.org/2000/svg" xmlns:xlink="http://www.w3.org/1999/xlink">
    <!-- Generator: Sketch 59 (86127) - https://sketch.com -->
    <title>Shape</title>
    <desc>Created with Sketch.</desc>
    <g id="Page-1" stroke="none" stroke-width="1" fill="none" fill-rule="evenodd">
        <g id="logo_white" fill="#000000" fill-rule="nonzero">
            <g id="Group" transform="translate(50.000000, 40.000000) scale(-1, 1) rotate(-180.000000) translate(-50.000000, -40.000000) ">
                <path d="M21.5691727,79.1914087 C9.4908404,76.0075805 0.849021,65.0410613 0.849021,52.912192 C0.849021,46.190777 4.234997,37.7005685 9.945673,29.9684144 C13.1295011,25.7233102 21.3670248,16.5255843 24.3992421,13.8471257 C25.4605182,12.8869236 29.4024007,9.24826279 33.0915984,5.76121289 C38.4990526,0.707517372 39.9140874,-0.404295641 40.4194569,0.151610865 C40.9248265,0.656980417 40.8742895,0.707517372 40.318383,0.404295641 C39.8130135,0.10107391 39.7119396,0.202147821 39.9646243,0.606443462 C40.2173091,0.960202148 40.7226787,1.11181301 41.1269743,0.960202148 C41.5312699,0.808591282 41.6828808,0.859128238 41.5312699,1.16234997 C41.3796591,1.41503474 41.7334178,1.86986734 42.2893243,2.17308907 C42.8452308,2.4763108 43.1484525,2.98168035 42.9968416,3.28490208 C42.7946938,3.58812382 42.8452308,3.68919773 43.1484525,3.53758686 C43.8054329,3.13329122 45.4731524,4.90208465 44.9677829,5.45799116 C44.7150981,5.66013898 44.816172,5.71067593 45.1193938,5.55906507 C45.6753003,5.20530638 49.5666458,8.89450411 49.1118132,9.29879975 C48.9602023,9.45041061 49.313961,9.55148452 49.9204045,9.50094757 C50.476311,9.45041061 52.3461783,8.08591282 54.0644348,6.4181933 C55.7321543,4.80101074 56.9450413,3.79027164 56.6923565,4.19456728 C56.2880608,4.85154769 56.3891348,4.85154769 57.0966521,4.24510423 C57.5514847,3.89134555 57.8041695,3.38597599 57.6525586,3.13329122 C57.5009478,2.88060644 57.6525586,2.72899558 58.0568543,2.77953253 C58.410613,2.88060644 58.6632977,2.62792167 58.6127608,2.32469994 C58.5116869,1.97094125 58.9159825,1.66771952 59.522426,1.66771952 C60.2804803,1.66771952 60.4826281,1.41503474 60.2804803,0.859128238 C60.1288694,0.454832596 60.1794064,0.252684776 60.4826281,0.404295641 C61.4428303,1.0107391 61.0385346,2.67845862 59.9772586,2.67845862 C59.3202782,2.67845862 58.9665195,3.03221731 58.9665195,3.68919773 C58.9665195,4.90208465 60.8869238,5.10423247 61.2912194,3.9418825 C61.4428303,3.53758686 62.0998107,3.23436513 62.7567911,3.28490208 C63.4643085,3.33543904 63.8180672,3.63866077 63.6664563,4.04295641 C63.4643085,4.49778901 63.6664563,4.59886292 64.3234367,4.34617814 C64.9804171,4.09349337 65.132028,4.19456728 64.8793432,4.85154769 C64.6771954,5.35691725 64.8793432,5.96336071 65.3341758,6.31711939 C65.7384715,6.67087808 66.4965258,7.3278585 66.9008214,7.83322805 C67.355654,8.28806064 68.0126342,8.54074542 68.3663932,8.38913455 C68.8212262,8.23752369 68.9222992,8.49020846 68.7201522,9.19772584 C68.5180042,9.95578016 68.6696152,10.2590019 69.2760582,10.2590019 C69.7308912,10.2590019 70.0846492,10.0568541 70.0846492,9.8041693 C70.0846492,9.55148452 70.4889452,9.39987366 70.9943152,9.50094757 C71.4491472,9.55148452 71.8029062,9.95578016 71.7018322,10.4106128 C71.6512952,10.8654454 72.1061282,11.4718888 72.7125712,11.8256475 C73.8243842,12.432091 73.8243842,12.381554 73.1168672,11.4718888 C72.4093492,10.5622236 72.4093492,10.5622236 73.2684782,11.219204 C73.7233102,11.5729627 74.1276062,12.2299431 74.1276062,12.6342388 C74.1276062,13.0385344 74.3297542,13.2406822 74.5319012,13.0890714 C74.7845862,12.9374605 74.9867342,13.1396083 74.9867342,13.543904 C74.9867342,14.655717 74.4813642,14.5041061 72.7631082,12.7858497 C71.7523692,11.7751105 71.0448522,11.4213519 70.8427042,11.7751105 C70.4889452,12.381554 70.8427042,12.9879975 71.6512952,13.0890714 C71.9039802,13.1396083 72.3082752,13.1901453 72.5609602,13.2406822 C72.8136452,13.2406822 72.9147192,13.7460518 72.7631082,14.2514214 C72.4598862,15.5148452 74.4813642,16.7782691 74.9361972,15.6159191 C75.2899562,14.655717 76.5533802,14.2008844 76.9576752,14.9084018 C77.1598232,15.2621605 77.1092862,15.3126974 76.7555272,15.1105496 C76.4017692,14.9084018 76.1490842,14.9589387 76.1490842,15.2621605 C76.1490842,15.5148452 76.4017692,15.9191409 76.6544542,16.0707517 C76.9576752,16.2223626 77.1598232,16.6266582 77.1598232,16.92988 C77.1598232,17.2836387 76.9071382,17.2836387 76.4523062,16.879343 C75.8963992,16.4245104 75.6942512,16.4750474 75.4415672,17.0814908 C75.2899562,17.5363234 75.3404932,17.7890082 75.5931782,17.6373973 C75.7953252,17.4857865 75.8963992,17.9406191 75.7447882,18.5975995 C75.6437142,19.3051169 75.7447882,19.8610234 76.0480102,19.8610234 C76.8566012,19.8610234 77.7662672,18.4459886 77.8673402,17.0814908 C77.9178772,15.9191409 77.9684142,15.8686039 78.5748582,16.6771952 C78.8780802,17.1320278 79.1813012,17.7384713 79.1813012,17.991156 C79.1813012,18.1933039 79.4845232,18.2438408 79.8382822,18.041693 C80.2425772,17.7384713 80.2425772,17.8900821 79.7877452,18.4965256 C79.2823752,19.102969 79.2318382,19.5072647 79.6866712,20.2147821 C80.1920402,21.0233733 80.1920402,21.0233733 79.9393562,20.0631712 C79.5350602,18.4965256 80.8995582,18.7492104 82.5672772,20.5180038 C83.3758692,21.377132 83.6790902,21.8825016 83.3758692,21.6803538 C83.0221102,21.4782059 82.7188882,21.5792798 82.7188882,21.8319646 C82.7188882,22.1351864 82.9715732,22.3878711 83.2747952,22.3878711 C83.9317752,22.3878711 87.1661402,25.3190145 87.8736582,26.6329754 C88.2779532,27.3404927 88.2274162,27.4921036 87.7220472,27.1888819 C87.3177512,26.9361971 87.2166772,26.986734 87.4693622,27.3404927 C87.6715102,27.6942514 88.1768792,27.9469362 88.5811752,27.9469362 C88.9854712,27.9469362 89.2886922,28.2501579 89.2886922,28.6039166 C89.2886922,28.9576753 89.9962102,29.9178774 90.8048012,30.7264687 C91.7144662,31.6361339 92.2198362,32.4952622 92.0682252,32.9500948 C91.9166142,33.4049274 91.9166142,33.5565382 92.1187622,33.3543904 C92.7252052,32.7984839 93.7864812,34.0113708 93.4832602,34.8704991 C93.2811122,35.3758686 93.3821862,35.5780164 93.6854072,35.3758686 C94.1907772,35.0726469 96.5154772,39.2166772 96.5154772,40.4295641 C96.5154772,40.7833228 96.7176252,41.0865445 96.9703102,41.0865445 C97.1724572,41.0865445 97.3240682,41.2381554 97.2735312,41.4908402 C97.2229942,41.692988 97.4251422,42.2994315 97.7283642,42.9058749 C98.0821232,43.4617814 98.3853442,44.5230575 98.4864182,45.2811118 C98.5874922,45.9886292 98.8401772,46.7466835 99.0423252,46.9488313 C99.2444732,47.1509792 99.3960832,49.7789008 99.3960832,52.7605812 C99.3960832,58.6734049 98.4358812,62.3120657 95.7068862,66.9614656 C92.4725212,72.5205306 85.3468102,77.6247631 78.6253952,79.2419457 C74.1781432,80.2526848 70.5394822,80.2021478 65.6373975,78.9387239 L61.4933672,77.9279848 L57.3493369,78.9387239 C52.1945675,80.2526848 48.6064437,80.2526848 43.704359,79.0397979 C32.3840811,76.1591914 24.2476313,66.5571699 23.2368922,55.0347442 C22.3777639,44.7252053 29.2507898,31.585597 42.643083,17.8900821 C44.1086547,16.4245104 45.3215416,15.0600126 45.3215416,14.8578648 C45.3215416,14.2514214 40.5205308,9.75363234 39.8635504,9.75363234 C38.5495896,9.75363234 22.4283009,25.8243841 17.829438,31.7372078 C14.1402403,36.4876816 11.5123186,40.7327858 9.895136,44.6241314 C8.9349339,46.8982944 8.732786,48.3638661 8.732786,52.7100442 C8.6822491,57.460518 8.83386,58.3196462 10.0467469,60.9475679 C12.6746686,66.5571699 18.7896401,71.2571068 24.60139,72.166772 C26.3701834,72.4699937 27.5325334,73.1269741 29.6550855,75.0473784 C31.1711941,76.4624131 32.8894506,77.8269109 33.546431,78.1301327 C35.2646875,78.888187 34.9614658,79.3430196 32.3840811,79.6967783 C28.6948833,80.2021478 24.60139,80 21.5691727,79.1914087 Z M59.1181303,70.4990524 C62.857865,68.6291851 66.3954519,65.0915982 68.4169302,61.0486418 C70.3373342,57.3594441 70.6405562,50.688566 69.0739102,46.1402401 C67.1029692,40.2779533 63.2116237,34.2640556 55.8837652,25.874921 L52.9526218,22.539482 L55.3783957,20.1642451 L57.8041695,17.7890082 L60.8869238,21.1749842 C62.6051802,23.0448515 63.8180672,24.813645 63.6664563,25.0663298 C63.5148454,25.3695515 63.6159193,25.4200884 63.9191411,25.2179406 C64.6266584,24.763108 70.9437782,33.3543904 73.4706252,38.307012 C76.3512322,43.916614 77.3114342,47.5047378 77.3114342,52.962729 C77.2608972,59.5830701 75.3404932,65.0915982 71.3986102,69.842072 C70.3878712,71.0549589 69.5792802,72.116235 69.5792802,72.2678459 C69.5792802,72.4194567 71.6007582,72.4699937 74.0770692,72.3183828 C77.8673402,72.065698 78.9791542,71.8130133 81.6576122,70.3979785 C85.1951992,68.4775742 89.1370812,64.4851548 90.7037272,61.2002527 C93.1295012,55.9444093 93.1295012,49.6778269 90.6531902,43.916614 C90.0972842,42.6026532 89.6424512,41.1876184 89.6424512,40.7833228 C89.6424512,40.4295641 89.4403032,40.2274163 89.2381552,40.3284902 C89.0865452,40.4801011 88.5811752,39.8231207 88.2274162,38.9134555 C87.8736582,38.0543272 87.3682882,37.144662 87.1156032,36.9930512 C86.9134552,36.8414403 86.6607712,36.3866077 86.5596972,35.9823121 C86.5091602,35.5780164 85.5994952,34.3145925 84.5382192,33.1522426 C83.4769432,31.9898926 82.6683512,30.9286166 82.7188882,30.7264687 C82.7188882,30.5748579 82.2640562,29.9684144 81.6070752,29.4630449 C80.9500952,28.9071383 80.5963362,28.5028427 80.7984842,28.4523057 C81.0006322,28.4523057 79.7372082,27.087808 78.0189512,25.3695515 C76.3006952,23.651295 75.2394192,22.4384081 75.6437142,22.6910929 C76.0985472,22.8932407 76.2501582,22.8427037 75.9974732,22.590019 C75.7447882,22.3373342 75.2899562,22.1351864 74.9867342,22.1351864 C74.6329752,22.0846494 74.4308282,21.7814277 74.5319012,21.377132 C74.6329752,20.9728364 74.5319012,20.7706886 74.3297542,21.0233733 C74.1276062,21.2255212 72.6114972,20.1137081 70.9943152,18.4965256 C68.1137082,15.6159191 67.5578018,14.8073279 68.6190782,14.8073279 C68.8717622,14.8073279 68.9728362,15.1105496 68.7706892,15.4643083 C68.5685412,15.76753 68.6190782,15.8686039 68.8212262,15.6664561 C69.0739102,15.4643083 69.3265952,14.9589387 69.3771322,14.5546431 C69.4782062,13.9987366 69.2255212,13.9481996 68.6696152,14.2008844 C68.1642452,14.4535692 67.6083388,14.60518 67.3051171,14.5546431 C66.5470627,14.5041061 63.7675302,11.7245736 63.9191411,11.1686671 C63.969678,10.9159823 63.8180672,10.8149084 63.5653824,10.9665193 C63.3126976,11.1181301 62.8073281,10.8654454 62.4535694,10.4106128 C61.8471259,9.70309539 61.8471259,9.60202148 62.4535694,9.95578016 C62.908402,10.2590019 63.0600128,10.2084649 62.9589389,9.8041693 C62.8073281,9.45041061 62.5546433,9.19772584 62.3524955,9.19772584 C62.1503476,9.24826279 61.2912194,9.24826279 60.4320912,9.24826279 C59.6234999,9.24826279 59.0170564,9.45041061 59.1686673,9.70309539 C59.3202782,9.95578016 59.1181303,10.2590019 58.7138347,10.4611497 C58.3095391,10.6127606 57.9557804,11.0170562 57.9557804,11.3708149 C57.9557804,11.7751105 57.5514847,12.432091 57.0966521,12.8363866 C56.5912826,13.2912192 55.6816174,14.2514214 55.024637,15.0094757 C54.4181935,15.76753 53.6096022,16.2223626 53.3063805,16.0202148 C52.9526218,15.818067 52.9020848,15.8686039 53.1042327,16.2728996 C53.3569174,16.6266582 51.4870501,18.9008212 48.3032219,22.2867972 C39.1054961,31.8888187 32.7378397,41.4908402 31.1711941,48.1111813 C29.3013268,56.0454833 32.434618,64.3335439 39.0044222,68.8818699 C44.816172,72.8742893 52.9526218,73.5312697 59.1181303,70.4990524 Z" id="Shape" transform="translate(50.122552, 39.996997) scale(-1, 1) translate(-50.122552, -39.996997) "></path>
            </g>
        </g>
    </g>
</svg>