<?xml version="1.0" standalone="no"?>
<!DOCTYPE svg PUBLIC "-//W3C//DTD SVG 20010904//EN"
 "http://www.w3.org/TR/2001/REC-SVG-20010904/DTD/svg10.dtd">
<svg version="1.0" xmlns="http://www.w3.org/2000/svg"
 width="752.000000pt" height="752.000000pt" viewBox="0 0 752.000000 752.000000"
 preserveAspectRatio="xMidYMid meet">
<metadata>
Created by potrace 1.11, written by Peter Selinger 2001-2013
</metadata>
<g transform="translate(0.000000,752.000000) scale(0.100000,-0.100000)"
fill="#000000" stroke="none">
<path d="M0 3760 l0 -3030 597 2 597 3 0 1228 c0 844 3 1227 11 1228 5 1 417
2 914 3 714 1 905 4 908 14 3 6 0 12 -6 12 -6 0 -11 7 -11 15 0 8 -9 30 -20
50 -11 19 -17 35 -14 35 4 0 2 6 -4 13 -5 6 -44 91 -87 187 -42 96 -86 195
-98 220 -12 25 -22 47 -22 50 -1 4 -13 30 -75 165 -10 22 -38 83 -61 135 -23
52 -51 115 -62 140 -11 25 -21 47 -22 50 -1 3 -12 29 -25 58 l-24 52 -651 0
-651 0 0 603 1 602 695 1 c382 0 701 -2 708 -4 13 -4 31 -40 98 -192 15 -36
31 -67 34 -70 3 -3 6 -10 7 -15 1 -6 16 -42 33 -80 17 -39 38 -83 45 -100 7
-16 28 -61 45 -100 45 -98 53 -119 52 -127 -1 -5 3 -8 8 -8 6 0 10 -5 10 -11
0 -10 14 -41 80 -186 16 -34 46 -101 67 -150 21 -48 42 -91 48 -95 5 -4 7 -8
3 -8 -4 0 1 -17 11 -37 11 -21 30 -63 44 -93 13 -30 34 -77 47 -105 12 -27 31
-68 40 -90 10 -22 32 -71 50 -110 18 -38 58 -128 90 -200 32 -71 73 -161 91
-200 18 -38 33 -72 34 -75 5 -15 30 -72 131 -288 23 -51 43 -95 43 -97 0 -3
12 -31 27 -63 14 -31 36 -79 49 -107 12 -27 32 -72 45 -100 12 -27 31 -68 40
-90 10 -22 29 -65 43 -95 14 -30 55 -122 92 -205 37 -82 72 -159 78 -170 6
-11 12 -24 13 -30 1 -5 22 -54 48 -108 25 -55 46 -100 46 -102 0 -2 19 -43 41
-92 23 -48 58 -126 79 -173 21 -47 48 -107 60 -135 13 -27 33 -72 45 -100 13
-27 37 -81 55 -120 18 -38 38 -83 45 -100 7 -16 25 -57 40 -90 63 -137 145
-321 150 -335 1 -3 16 -36 33 -73 18 -38 32 -73 32 -78 0 -5 5 -9 10 -9 6 0 9
-3 9 -7 -8 -50 13 -40 39 20 13 28 27 61 32 72 5 11 14 31 20 45 5 14 14 32
19 40 5 8 24 49 41 90 18 41 43 98 56 125 12 28 34 77 49 110 15 33 35 78 45
100 10 22 27 60 38 85 39 88 69 156 90 200 38 84 129 286 177 395 7 17 45 102
85 190 40 88 80 178 90 200 10 22 62 137 115 255 53 118 98 220 99 225 2 6 24
54 49 108 26 54 47 100 47 102 0 2 16 39 36 82 33 72 55 120 59 133 1 3 16 37
34 75 48 102 69 150 113 250 21 50 50 113 62 140 68 144 94 202 101 225 4 14
11 30 15 35 4 6 23 46 43 90 40 92 69 157 105 235 15 30 27 57 27 60 3 9 23
54 58 130 19 41 49 109 67 150 18 41 50 112 71 158 22 46 39 85 39 87 0 2 20
48 45 101 25 53 45 97 45 99 0 3 128 288 180 400 24 53 34 78 32 88 -1 4 2 7
8 7 5 0 10 5 10 11 0 6 16 45 35 86 19 41 35 76 35 78 0 2 17 39 37 82 20 43
37 80 38 83 3 9 23 55 49 112 14 31 26 62 26 67 0 6 4 11 9 11 9 0 26 48 23
63 -1 4 2 7 8 7 5 0 10 9 10 20 0 11 5 20 12 20 6 0 9 3 5 6 -3 4 4 25 15 48
12 22 23 43 23 46 2 8 21 50 51 115 15 33 28 62 29 65 0 3 12 28 24 55 13 28
32 69 42 93 l18 42 -1739 0 c-957 0 -1740 -3 -1740 -6 0 -6 41 -101 100 -229
17 -38 38 -83 45 -100 12 -27 42 -95 95 -210 32 -70 72 -159 90 -200 21 -48
62 -138 100 -220 15 -33 40 -89 55 -125 52 -118 -23 -105 598 -106 298 -1 545
-2 549 -3 3 0 -2 -18 -12 -38 -10 -21 -39 -85 -65 -143 -59 -133 -77 -171
-111 -245 -15 -33 -28 -62 -29 -65 -4 -11 -25 -59 -55 -125 -36 -79 -50 -110
-116 -256 -25 -57 -56 -124 -67 -149 -11 -25 -21 -47 -22 -50 -1 -3 -16 -36
-33 -74 -18 -38 -32 -70 -32 -72 0 -1 -18 -42 -41 -91 -40 -86 -61 -133 -64
-143 0 -3 -13 -30 -27 -60 -14 -30 -35 -75 -46 -100 -44 -100 -71 -158 -96
-212 -14 -31 -26 -61 -26 -65 0 -5 -7 -19 -16 -32 -16 -23 -17 -22 -56 66 -22
48 -51 113 -65 143 -14 30 -34 74 -44 98 -11 23 -29 63 -41 90 -12 26 -22 49
-23 52 0 3 -11 28 -24 55 -13 28 -34 75 -48 105 -66 145 -127 280 -150 330
-43 95 -61 134 -81 180 -29 65 -68 152 -97 214 -31 67 -47 111 -43 112 2 1 -4
10 -13 20 -9 11 -22 35 -29 54 -8 19 -35 81 -62 138 -26 57 -48 106 -48 108 0
3 -20 48 -45 101 -25 52 -45 97 -45 99 0 1 -18 42 -41 91 -22 48 -48 104 -56
123 -8 19 -28 62 -44 95 -15 33 -29 67 -31 75 -2 8 -5 17 -8 20 -3 3 -30 59
-59 125 -30 66 -71 158 -92 203 -22 46 -39 85 -39 87 0 1 -17 38 -37 81 -20
44 -37 81 -38 84 -1 3 -14 32 -29 65 -15 33 -32 70 -37 83 l-9 22 -1690 0
-1690 0 0 -3030z"/>
</g>
</svg>
